<svg width="24" height="27" viewBox="0 0 24 27" fill="none" xmlns="http://www.w3.org/2000/svg">
<path d="M18.679 4.20264L20.8492 2.07936C21.3232 1.62437 22.0715 1.62437 22.5205 2.10464C22.9696 2.5849 22.9696 3.34322 22.4956 3.7982L19.0282 7.18534C15.9599 10.1933 16.0347 15.2235 19.2277 18.1303L22.7949 21.3911C23.2689 21.8461 23.3188 22.6044 22.8698 23.0847C22.4208 23.5649 21.6724 23.6155 21.1984 23.1605L17.756 20.0009L18.7288 24.6266C18.8785 25.2838 18.4544 25.9157 17.8059 26.0421C17.1573 26.1938 16.5336 25.764 16.4089 25.1068L15.4111 20.3295C14.5131 16.0829 10.2724 13.5046 6.15637 14.6927L1.51653 16.0323C0.892897 16.2093 0.219371 15.8554 0.0447538 15.1982C-0.129864 14.5663 0.219372 13.8838 0.867951 13.7068L3.8614 12.8474L1.21719 12.0386C0.593552 11.8363 0.244317 11.1791 0.418934 10.5472C0.618498 9.91527 1.26708 9.56139 1.89071 9.73833L6.50561 11.1539C10.5966 12.4177 14.8873 9.91527 15.8601 5.66871L16.9577 0.91661C17.1074 0.284681 17.731 -0.119753 18.3796 0.03191C19.0282 0.183573 19.4024 0.815501 19.2776 1.47271L18.679 4.12681V4.20264ZM14.5879 14.5157C14.4382 13.7068 14.3634 12.898 14.4133 12.0891C13.8395 12.5188 13.2159 12.8727 12.5923 13.1507C13.3157 13.5299 13.9892 13.9849 14.5879 14.5157Z" fill="white"/>
</svg>
